<mxfile host="app.diagrams.net" modified="2023-12-01T06:55:41.830Z" agent="Mozilla/5.0 (Macintosh; Intel Mac OS X 10_15_7) AppleWebKit/537.36 (KHTML, like Gecko) Chrome/119.0.0.0 Safari/537.36" version="22.1.5" etag="bl1Z0AGiMcs8bF8HX7dy" type="github">
  <diagram name="第 1 页" id="foYGR9R7QBZYM_IOSINY">
    <mxGraphModel>
      <root>
        <mxCell id="0" />
        <mxCell id="1" parent="0" />
      </root>
    </mxGraphModel>
  </diagram>
</mxfile>
